# File created by Blade
# Date/Time:  Thu Jan 22 16:00:44 2015
# Frame Rate: 120.000 fps
#------------------------------------------------------
:FULLY-SPECIFIED
:DEGREES
1689
root 2.702526 37.093658 6.326641 -11.783304 1.039171 1.606737
RightUpLeg 19.925007 -2.050659 -4.831024
RightLeg -3.517291 -0.000000 0.000000
RightFoot -11.821777 -9.669786 17.715343
RightToeBase 13.197925 -0.000000 -0.000000
LeftUpLeg 16.232633 1.019159 3.767707
LeftLeg -0.726274 -0.000000 0.000000
LeftFoot -6.958568 5.504869 -17.656939
LeftToeBase 7.633831 -0.000000 -0.000000
Spine 16.923857 -11.115638 -2.019702
RightShoulder 13.081140 -43.065781 -14.826471
RightArm 79.759620 -77.299766 0.155026
RightForeArm -35.740748 -0.000000 64.095884
RightHand 14.177975 -0.000000 8.345320
RightHandThumb1 -24.326973 -0.000000 -32.862282
LeftShoulder -8.280962 22.701854 16.472944
LeftArm 77.867365 -19.585863 -65.252638
LeftForeArm -1.736546 -0.000000 44.738476
LeftHand -14.483749 -0.000000 0.410094
LeftHandThumb1 -26.253704 0.000000 33.147579
Head 12.998095 21.182253 1.544222
1690
root 2.677189 37.096274 6.349370 -11.811392 0.888589 1.568783
RightUpLeg 19.929222 -1.980113 -4.735424
RightLeg -3.458720 -0.000000 0.000000
RightFoot -11.821281 -9.656108 17.667773
RightToeBase 13.204459 -0.000000 -0.000000
LeftUpLeg 16.218179 1.023216 3.834142
LeftLeg -0.527103 -0.000000 0.000000
LeftFoot -7.091179 5.607273 -17.656046
LeftToeBase 7.525767 -0.000000 -0.000000
Spine 16.812730 -11.013156 -1.927228
RightShoulder 13.005677 -43.529797 -14.610758
RightArm 84.048580 -77.615042 -3.248828
RightForeArm -35.888762 -0.000000 65.863324
RightHand 14.993463 -0.000000 8.047510
RightHandThumb1 -24.326973 -0.000000 -32.862282
LeftShoulder -8.455763 22.648917 17.255299
LeftArm 78.975057 -20.783864 -65.675884
LeftForeArm -1.824899 -0.000000 46.132826
LeftHand -14.380717 0.000000 1.006029
LeftHandThumb1 -26.253704 0.000000 33.147579
Head 13.372397 21.155148 2.064791
1691
root 2.652416 37.098826 6.369897 -11.824503 0.744174 1.510242
RightUpLeg 19.911639 -1.923365 -4.627528
RightLeg -3.384166 -0.000000 0.000000
RightFoot -11.821581 -9.600730 17.646377
RightToeBase 13.138441 -0.000000 -0.000000
LeftUpLeg 16.190315 1.016061 3.918119
LeftLeg -0.337482 -0.000000 0.000000
LeftFoot -7.212735 5.711817 -17.638533
LeftToeBase 7.441934 -0.000000 -0.000000
Spine 16.711600 -10.988261 -1.807472
RightShoulder 12.982440 -43.692172 -14.406108
RightArm 87.792090 -78.091951 -6.113760
RightForeArm -36.357330 0.000000 67.722020
RightHand 14.997605 -0.000000 7.870144
RightHandThumb1 -24.326973 -0.000000 -32.862282
LeftShoulder -8.710164 22.559883 17.962443
LeftArm 80.003039 -21.990570 -66.077808
LeftForeArm -1.997887 0.000000 47.502303
LeftHand -14.455567 -0.000000 1.642670
LeftHandThumb1 -26.253704 0.000000 33.147579
Head 13.668225 21.061721 2.530508
1692
root 2.626109 37.102194 6.384288 -11.813877 0.640603 1.462740
RightUpLeg 19.867483 -1.905154 -4.535183
RightLeg -3.311874 -0.000000 0.000000
RightFoot -11.822711 -9.565410 17.609245
RightToeBase 13.133705 -0.000000 -0.000000
LeftUpLeg 16.108687 0.905302 3.969132
LeftLeg -0.121500 -0.000000 0.000000
LeftFoot -7.360425 5.857656 -17.677396
LeftToeBase 7.405185 -0.000000 -0.000000
Spine 16.594655 -10.921921 -1.729297
RightShoulder 12.810005 -43.973189 -14.045791
RightArm 91.508754 -78.301088 -8.941707
RightForeArm -36.590197 -0.000000 69.510665
RightHand 15.081875 -0.000000 8.024335
RightHandThumb1 -24.326973 -0.000000 -32.862282
LeftShoulder -8.897726 22.399844 18.763089
LeftArm 80.981516 -23.147569 -66.560083
LeftForeArm -2.333137 0.000000 48.833353
LeftHand -14.469353 0.000000 2.059349
LeftHandThumb1 -26.253704 0.000000 33.147579
Head 14.032349 20.954265 3.030676
1693
root 2.601804 37.104914 6.397884 -11.798239 0.467367 1.391944
RightUpLeg 19.788204 -1.841214 -4.415753
RightLeg -3.204627 -0.000000 0.000000
RightFoot -11.824596 -9.494818 17.604058
RightToeBase 13.153395 -0.000000 -0.000000
LeftUpLeg 16.063118 0.869597 4.054670
LeftLeg 0.033929 -0.000000 -0.000000
LeftFoot -7.507427 6.017293 -17.686110
LeftToeBase 7.386730 -0.000000 -0.000000
Spine 16.486947 -10.920321 -1.610343
RightShoulder 12.807854 -44.427978 -13.804400
RightArm 94.243387 -78.221017 -10.847340
RightForeArm -37.021863 -0.000000 71.337655
RightHand 15.176013 0.000000 7.953690
RightHandThumb1 -24.326973 -0.000000 -32.862282
LeftShoulder -9.258882 22.430644 19.370293
LeftArm 82.143578 -24.401854 -67.042395
LeftForeArm -2.730740 -0.000000 50.050368
LeftHand -14.290340 -0.000000 2.675787
LeftHandThumb1 -26.253704 0.000000 33.147579
Head 14.347620 20.947080 3.463687
1694
root 2.585282 37.106284 6.411847 -11.764515 0.234913 1.326667
RightUpLeg 19.679159 -1.726842 -4.311279
RightLeg -3.091157 -0.000000 0.000000
RightFoot -11.817315 -9.364985 17.630133
RightToeBase 13.136619 -0.000000 -0.000000
LeftUpLeg 16.028131 0.864817 4.125802
LeftLeg 0.158984 -0.000000 -0.000000
LeftFoot -7.662563 6.200241 -17.714678
LeftToeBase 7.419230 -0.000000 -0.000000
Spine 16.338929 -10.854683 -1.453375
RightShoulder 12.774826 -44.836960 -13.605675
RightArm 96.062609 -78.142693 -11.776463
RightForeArm -37.573789 -0.000000 73.121458
RightHand 15.310581 -0.000000 8.275948
RightHandThumb1 -24.326973 -0.000000 -32.862282
LeftShoulder -9.595560 22.489398 19.909411
LeftArm 83.315184 -25.663685 -67.494541
LeftForeArm -2.885568 -0.000000 51.209099
LeftHand -14.478641 -0.000000 3.254180
LeftHandThumb1 -26.253704 0.000000 33.147579
Head 14.731451 20.927177 3.943905
1695
root 2.560737 37.107214 6.424110 -11.766979 0.052425 1.265583
RightUpLeg 19.629190 -1.627789 -4.192040
RightLeg -3.012501 -0.000000 0.000000
RightFoot -11.814655 -9.317038 17.560938
RightToeBase 13.106866 -0.000000 -0.000000
LeftUpLeg 16.006359 0.840554 4.206514
LeftLeg 0.306777 -0.000000 -0.000000
LeftFoot -7.808250 6.339994 -17.764617
LeftToeBase 7.390614 -0.000000 -0.000000
Spine 16.233105 -10.632618 -1.364388
RightShoulder 12.436439 -45.141473 -13.088447
RightArm 97.968586 -78.010469 -12.876828
RightForeArm -37.765114 -0.000000 74.984318
RightHand 15.360225 -0.000000 8.341044
RightHandThumb1 -24.326973 -0.000000 -32.862282
LeftShoulder -9.714842 22.530983 20.658600
LeftArm 84.599338 -26.896633 -68.200150
LeftForeArm -3.195160 -0.000000 52.289094
LeftHand -14.696190 -0.000000 3.958009
LeftHandThumb1 -26.253704 0.000000 33.147579
Head 15.169599 20.725520 4.672171
